<svg xmlns="http://www.w3.org/2000/svg" xmlns:xlink="http://www.w3.org/1999/xlink" width="1080" zoomAndPan="magnify" viewBox="0 0 810 149.999998" height="200" preserveAspectRatio="xMidYMid meet" version="1.0"><defs><g/><clipPath id="5d9cff7de2"><path d="M 506.109375 38.28125 L 789 38.28125 L 789 135 L 506.109375 135 Z M 506.109375 38.28125 " clip-rule="nonzero"/></clipPath><clipPath id="90215f5fb7"><path d="M 576.4375 38.28125 L 775.9375 38.28125 C 780.546875 38.28125 784.796875 40.753906 787.078125 44.753906 C 789.363281 48.757812 789.320312 53.675781 786.972656 57.640625 L 752.625 115.640625 C 745.519531 127.640625 732.609375 135 718.660156 135 L 519.164062 135 C 514.554688 135 510.300781 132.527344 508.019531 128.527344 C 505.738281 124.523438 505.78125 119.605469 508.128906 115.640625 L 542.472656 57.640625 C 549.578125 45.640625 562.492188 38.28125 576.4375 38.28125 Z M 576.4375 38.28125 " clip-rule="nonzero"/></clipPath><clipPath id="ccb23f57de"><path d="M 3.617188 100 L 25 100 L 25 135 L 3.617188 135 Z M 3.617188 100 " clip-rule="nonzero"/></clipPath><clipPath id="6d2b6c46da"><path d="M 103 63 L 124.839844 63 L 124.839844 135 L 103 135 Z M 103 63 " clip-rule="nonzero"/></clipPath><clipPath id="8fb18a0cfe"><path d="M 3.617188 7.210938 L 124.839844 7.210938 L 124.839844 89 L 3.617188 89 Z M 3.617188 7.210938 " clip-rule="nonzero"/></clipPath></defs><g clip-path="url(#5d9cff7de2)"><g clip-path="url(#90215f5fb7)"><path fill="#4a6cf7" d="M 496.664062 38.28125 L 798.53125 38.28125 L 798.53125 135 L 496.664062 135 Z M 496.664062 38.28125 " fill-opacity="1" fill-rule="nonzero"/></g></g><g clip-path="url(#ccb23f57de)"><path fill="#344793" d="M 3.628906 100.105469 L 24.996094 100.105469 L 24.996094 134.992188 L 3.628906 134.992188 Z M 3.628906 100.105469 " fill-opacity="1" fill-rule="nonzero"/></g><path fill="#344793" d="M 36.769531 134.992188 L 36.769531 95.304688 L 58.320312 95.304688 L 58.320312 134.992188 Z M 36.769531 134.992188 " fill-opacity="1" fill-rule="nonzero"/><path fill="#344793" d="M 69.917969 83.53125 L 92.160156 83.53125 L 92.160156 134.992188 L 69.917969 134.992188 Z M 69.917969 83.53125 " fill-opacity="1" fill-rule="nonzero"/><g clip-path="url(#6d2b6c46da)"><path fill="#344793" d="M 103.933594 63.035156 L 124.867188 63.035156 L 124.867188 134.992188 L 103.933594 134.992188 Z M 103.933594 63.035156 " fill-opacity="1" fill-rule="nonzero"/></g><g clip-path="url(#8fb18a0cfe)"><path fill="#344793" d="M 3.628906 88.148438 C 3.628906 88.148438 60.324219 80.492188 99.136719 29.015625 L 86.488281 20.730469 L 124.875 7.210938 L 124.875 47.679688 L 114.40625 38.609375 C 114.40625 38.609375 66.863281 92.324219 3.628906 88.148438 Z M 3.628906 88.148438 " fill-opacity="1" fill-rule="nonzero"/></g><g fill="#d9d9d9" fill-opacity="1"><g transform="translate(192.9198, 118.708225)"><g><path d="M 24.84375 -44.390625 C 32.445312 -44.390625 38.160156 -42.050781 41.984375 -37.375 C 45.816406 -32.707031 47.488281 -26.300781 47 -18.15625 L 16.125 -18.15625 C 16.832031 -15.550781 18.082031 -13.539062 19.875 -12.125 C 21.664062 -10.71875 23.863281 -10.015625 26.46875 -10.015625 C 30.488281 -10.015625 33.992188 -11.507812 36.984375 -14.5 L 44.390625 -7.25 C 39.671875 -2.09375 33.289062 0.484375 25.25 0.484375 C 18.132812 0.484375 12.472656 -1.550781 8.265625 -5.625 C 4.054688 -9.695312 1.953125 -15.097656 1.953125 -21.828125 C 1.953125 -28.617188 4.054688 -34.078125 8.265625 -38.203125 C 12.472656 -42.328125 18 -44.390625 24.84375 -44.390625 Z M 15.890625 -25.734375 L 33.484375 -25.734375 C 33.484375 -28.398438 32.707031 -30.546875 31.15625 -32.171875 C 29.601562 -33.804688 27.550781 -34.625 25 -34.625 C 22.613281 -34.625 20.601562 -33.820312 18.96875 -32.21875 C 17.34375 -30.613281 16.316406 -28.453125 15.890625 -25.734375 Z M 15.890625 -25.734375 "/></g></g></g><g fill="#d9d9d9" fill-opacity="1"><g transform="translate(237.309973, 118.708225)"><g><path d="M 43.578125 -29 L 56.125 -29 L 56.125 -6.765625 C 53.03125 -4.585938 49.296875 -2.804688 44.921875 -1.421875 C 40.546875 -0.0351562 36.378906 0.65625 32.421875 0.65625 C 23.734375 0.65625 16.484375 -2.125 10.671875 -7.6875 C 4.859375 -13.257812 1.953125 -20.203125 1.953125 -28.515625 C 1.953125 -36.765625 4.9375 -43.65625 10.90625 -49.1875 C 16.882812 -54.726562 24.378906 -57.5 33.390625 -57.5 C 37.628906 -57.5 41.835938 -56.738281 46.015625 -55.21875 C 50.203125 -53.695312 53.757812 -51.632812 56.6875 -49.03125 L 48.546875 -39.171875 C 46.484375 -41.078125 44.09375 -42.585938 41.375 -43.703125 C 38.664062 -44.816406 35.976562 -45.375 33.3125 -45.375 C 28.644531 -45.375 24.722656 -43.753906 21.546875 -40.515625 C 18.367188 -37.285156 16.78125 -33.285156 16.78125 -28.515625 C 16.78125 -23.679688 18.378906 -19.632812 21.578125 -16.375 C 24.785156 -13.113281 28.753906 -11.484375 33.484375 -11.484375 C 36.515625 -11.484375 39.878906 -12.40625 43.578125 -14.25 Z M 43.578125 -29 "/></g></g></g><g fill="#d9d9d9" fill-opacity="1"><g transform="translate(293.184682, 118.708225)"><g><path d="M 19.71875 -43.90625 L 19.71875 -36.484375 C 22.8125 -41.753906 27.5625 -44.445312 33.96875 -44.5625 L 33.96875 -31.84375 C 29.945312 -32.226562 26.660156 -31.5625 24.109375 -29.84375 C 21.554688 -28.132812 20.09375 -25.707031 19.71875 -22.5625 L 19.71875 0 L 5.625 0 L 5.625 -43.90625 Z M 19.71875 -43.90625 "/></g></g></g><g fill="#d9d9d9" fill-opacity="1"><g transform="translate(323.320972, 118.708225)"><g><path d="M 25.984375 -44.390625 C 33.148438 -44.390625 38.929688 -42.335938 43.328125 -38.234375 C 47.734375 -34.140625 49.9375 -28.722656 49.9375 -21.984375 C 49.9375 -15.253906 47.734375 -9.828125 43.328125 -5.703125 C 38.929688 -1.578125 33.148438 0.484375 25.984375 0.484375 C 18.765625 0.484375 12.953125 -1.578125 8.546875 -5.703125 C 4.148438 -9.828125 1.953125 -15.253906 1.953125 -21.984375 C 1.953125 -28.722656 4.148438 -34.140625 8.546875 -38.234375 C 12.953125 -42.335938 18.765625 -44.390625 25.984375 -44.390625 Z M 25.984375 -33.234375 C 23.046875 -33.234375 20.664062 -32.171875 18.84375 -30.046875 C 17.03125 -27.929688 16.125 -25.191406 16.125 -21.828125 C 16.125 -18.410156 17.03125 -15.65625 18.84375 -13.5625 C 20.664062 -11.46875 23.046875 -10.421875 25.984375 -10.421875 C 28.859375 -10.421875 31.207031 -11.46875 33.03125 -13.5625 C 34.851562 -15.65625 35.765625 -18.410156 35.765625 -21.828125 C 35.765625 -25.191406 34.851562 -27.929688 33.03125 -30.046875 C 31.207031 -32.171875 28.859375 -33.234375 25.984375 -33.234375 Z M 25.984375 -33.234375 "/></g></g></g><g fill="#d9d9d9" fill-opacity="1"><g transform="translate(370.5619, 118.708225)"><g><path d="M 60.84375 0 L 46.921875 0 L 38.28125 -27.859375 L 29.65625 0 L 15.640625 0 L -0.40625 -43.90625 L 13.921875 -43.90625 L 22.96875 -13.515625 L 31.765625 -43.90625 L 45.203125 -43.90625 L 54.25 -13.515625 L 63.125 -43.90625 L 76.890625 -43.90625 Z M 60.84375 0 "/></g></g></g><g fill="#d9d9d9" fill-opacity="1"><g transform="translate(442.238035, 118.708225)"><g><path d="M 31.203125 -12.140625 L 33.96875 -2.359375 C 30.539062 -0.347656 26.628906 0.65625 22.234375 0.65625 C 17.890625 0.65625 14.375 -0.550781 11.6875 -2.96875 C 9 -5.382812 7.65625 -8.820312 7.65625 -13.28125 L 7.65625 -32.65625 L 1.546875 -32.65625 L 1.546875 -41.859375 L 7.65625 -41.859375 L 7.65625 -54.078125 L 21.671875 -54.078125 L 21.671875 -41.953125 L 33.15625 -41.953125 L 33.15625 -32.65625 L 21.671875 -32.65625 L 21.671875 -15.46875 C 21.671875 -13.789062 22.007812 -12.554688 22.6875 -11.765625 C 23.363281 -10.984375 24.378906 -10.617188 25.734375 -10.671875 C 27.035156 -10.671875 28.859375 -11.160156 31.203125 -12.140625 Z M 31.203125 -12.140625 "/></g></g></g><g fill="#d9d9d9" fill-opacity="1"><g transform="translate(473.025938, 118.708225)"><g><path d="M 34.859375 -44.5625 C 39.691406 -44.5625 43.570312 -43.023438 46.5 -39.953125 C 49.4375 -36.878906 50.90625 -32.789062 50.90625 -27.6875 L 50.90625 0 L 36.8125 0 L 36.8125 -23.78125 C 36.8125 -26.332031 36.117188 -28.351562 34.734375 -29.84375 C 33.347656 -31.34375 31.460938 -32.09375 29.078125 -32.09375 C 26.359375 -32.09375 24.1875 -31.113281 22.5625 -29.15625 C 20.9375 -27.207031 20.125 -24.710938 20.125 -21.671875 L 20.125 0 L 6.03125 0 L 6.03125 -60.4375 L 20.125 -60.4375 L 20.125 -36.65625 C 23.21875 -41.8125 28.128906 -44.445312 34.859375 -44.5625 Z M 34.859375 -44.5625 "/></g></g></g><g fill="#ffffff" fill-opacity="1"><g transform="translate(550.938431, 118.708225)"><g><path d="M 58.328125 0 L 45.53125 0 L 19.296875 -35.109375 L 19.296875 0 L 5.703125 0 L 5.703125 -57.015625 L 18.484375 -57.015625 L 44.796875 -21.828125 L 44.796875 -57.015625 L 58.328125 -57.015625 Z M 58.328125 0 "/></g></g></g><g fill="#ffffff" fill-opacity="1"><g transform="translate(610.315514, 118.708225)"><g><path d="M 25.984375 -44.390625 C 33.148438 -44.390625 38.929688 -42.335938 43.328125 -38.234375 C 47.734375 -34.140625 49.9375 -28.722656 49.9375 -21.984375 C 49.9375 -15.253906 47.734375 -9.828125 43.328125 -5.703125 C 38.929688 -1.578125 33.148438 0.484375 25.984375 0.484375 C 18.765625 0.484375 12.953125 -1.578125 8.546875 -5.703125 C 4.148438 -9.828125 1.953125 -15.253906 1.953125 -21.984375 C 1.953125 -28.722656 4.148438 -34.140625 8.546875 -38.234375 C 12.953125 -42.335938 18.765625 -44.390625 25.984375 -44.390625 Z M 25.984375 -33.234375 C 23.046875 -33.234375 20.664062 -32.171875 18.84375 -30.046875 C 17.03125 -27.929688 16.125 -25.191406 16.125 -21.828125 C 16.125 -18.410156 17.03125 -15.65625 18.84375 -13.5625 C 20.664062 -11.46875 23.046875 -10.421875 25.984375 -10.421875 C 28.859375 -10.421875 31.207031 -11.46875 33.03125 -13.5625 C 34.851562 -15.65625 35.765625 -18.410156 35.765625 -21.828125 C 35.765625 -25.191406 34.851562 -27.929688 33.03125 -30.046875 C 31.207031 -32.171875 28.859375 -33.234375 25.984375 -33.234375 Z M 25.984375 -33.234375 "/></g></g></g><g fill="#ffffff" fill-opacity="1"><g transform="translate(657.556446, 118.708225)"><g><path d="M 60.84375 0 L 46.921875 0 L 38.28125 -27.859375 L 29.65625 0 L 15.640625 0 L -0.40625 -43.90625 L 13.921875 -43.90625 L 22.96875 -13.515625 L 31.765625 -43.90625 L 45.203125 -43.90625 L 54.25 -13.515625 L 63.125 -43.90625 L 76.890625 -43.90625 Z M 60.84375 0 "/></g></g></g></svg>