<svg xmlns="http://www.w3.org/2000/svg" xmlns:xlink="http://www.w3.org/1999/xlink" width="1080" zoomAndPan="magnify" viewBox="0 0 810 149.999998" height="200" preserveAspectRatio="xMidYMid meet" version="1.0"><defs><g/><clipPath id="beeb8a1e69"><path d="M 515.015625 37.898438 L 800.273438 37.898438 L 800.273438 135.394531 L 515.015625 135.394531 Z M 515.015625 37.898438 " clip-rule="nonzero"/></clipPath><clipPath id="2c5caee80f"><path d="M 585.730469 37.898438 L 787.199219 37.898438 C 791.808594 37.898438 796.0625 40.367188 798.34375 44.371094 C 800.625 48.375 800.582031 53.292969 798.234375 57.257812 L 763.429688 116.035156 C 756.320312 128.035156 743.410156 135.394531 729.464844 135.394531 L 527.996094 135.394531 C 523.386719 135.394531 519.132812 132.925781 516.851562 128.921875 C 514.570312 124.917969 514.613281 120 516.960938 116.035156 L 551.765625 57.257812 C 558.875 45.257812 571.785156 37.898438 585.730469 37.898438 Z M 585.730469 37.898438 " clip-rule="nonzero"/></clipPath><clipPath id="62f1ddf0e6"><path d="M 8.480469 100 L 31 100 L 31 135.738281 L 8.480469 135.738281 Z M 8.480469 100 " clip-rule="nonzero"/></clipPath><clipPath id="fa9ca499e7"><path d="M 41 95 L 64 95 L 64 135.738281 L 41 135.738281 Z M 41 95 " clip-rule="nonzero"/></clipPath><clipPath id="e0211c55fb"><path d="M 75 83 L 98 83 L 98 135.738281 L 75 135.738281 Z M 75 83 " clip-rule="nonzero"/></clipPath><clipPath id="552fe099f5"><path d="M 109 62 L 130.675781 62 L 130.675781 135.738281 L 109 135.738281 Z M 109 62 " clip-rule="nonzero"/></clipPath><clipPath id="ac72831d45"><path d="M 8.480469 6.578125 L 130.675781 6.578125 L 130.675781 89 L 8.480469 89 Z M 8.480469 6.578125 " clip-rule="nonzero"/></clipPath></defs><g clip-path="url(#beeb8a1e69)"><g clip-path="url(#2c5caee80f)"><path fill="#4a6cf7" d="M 505.496094 37.898438 L 809.796875 37.898438 L 809.796875 135.394531 L 505.496094 135.394531 Z M 505.496094 37.898438 " fill-opacity="1" fill-rule="nonzero"/></g></g><g clip-path="url(#62f1ddf0e6)"><path fill="#344793" d="M 8.492188 100.21875 L 30.03125 100.21875 L 30.03125 135.386719 L 8.492188 135.386719 Z M 8.492188 100.21875 " fill-opacity="1" fill-rule="nonzero"/></g><g clip-path="url(#fa9ca499e7)"><path fill="#344793" d="M 41.898438 135.386719 L 41.898438 95.382812 L 63.625 95.382812 L 63.625 135.386719 Z M 41.898438 135.386719 " fill-opacity="1" fill-rule="nonzero"/></g><g clip-path="url(#e0211c55fb)"><path fill="#344793" d="M 75.3125 83.511719 L 97.734375 83.511719 L 97.734375 135.386719 L 75.3125 135.386719 Z M 75.3125 83.511719 " fill-opacity="1" fill-rule="nonzero"/></g><g clip-path="url(#552fe099f5)"><path fill="#344793" d="M 109.601562 62.851562 L 130.707031 62.851562 L 130.707031 135.386719 L 109.601562 135.386719 Z M 109.601562 62.851562 " fill-opacity="1" fill-rule="nonzero"/></g><g clip-path="url(#ac72831d45)"><path fill="#344793" d="M 8.492188 88.164062 C 8.492188 88.164062 65.640625 80.449219 104.769531 28.558594 L 92.019531 20.207031 L 130.714844 6.578125 L 130.714844 47.371094 L 120.160156 38.230469 C 120.160156 38.230469 72.234375 92.375 8.492188 88.164062 Z M 8.492188 88.164062 " fill-opacity="1" fill-rule="nonzero"/></g><g fill="#000000" fill-opacity="1"><g transform="translate(199.306505, 119.672674)"><g><path d="M 25.046875 -44.75 C 32.703125 -44.75 38.457031 -42.394531 42.3125 -37.6875 C 46.175781 -32.976562 47.863281 -26.519531 47.375 -18.3125 L 16.25 -18.3125 C 16.96875 -15.6875 18.226562 -13.660156 20.03125 -12.234375 C 21.84375 -10.804688 24.0625 -10.09375 26.6875 -10.09375 C 30.738281 -10.09375 34.269531 -11.597656 37.28125 -14.609375 L 44.75 -7.3125 C 39.988281 -2.101562 33.554688 0.5 25.453125 0.5 C 18.285156 0.5 12.578125 -1.550781 8.328125 -5.65625 C 4.085938 -9.769531 1.96875 -15.21875 1.96875 -22 C 1.96875 -28.84375 4.085938 -34.34375 8.328125 -38.5 C 12.578125 -42.664062 18.148438 -44.75 25.046875 -44.75 Z M 16.015625 -25.953125 L 33.75 -25.953125 C 33.75 -28.628906 32.96875 -30.785156 31.40625 -32.421875 C 29.84375 -34.066406 27.773438 -34.890625 25.203125 -34.890625 C 22.796875 -34.890625 20.769531 -34.082031 19.125 -32.46875 C 17.488281 -30.851562 16.453125 -28.679688 16.015625 -25.953125 Z M 16.015625 -25.953125 "/></g></g></g><g fill="#000000" fill-opacity="1"><g transform="translate(244.051096, 119.672674)"><g><path d="M 43.921875 -29.234375 L 56.578125 -29.234375 L 56.578125 -6.8125 C 53.453125 -4.625 49.6875 -2.832031 45.28125 -1.4375 C 40.875 -0.0390625 36.671875 0.65625 32.671875 0.65625 C 23.921875 0.65625 16.613281 -2.144531 10.75 -7.75 C 4.894531 -13.363281 1.96875 -20.359375 1.96875 -28.734375 C 1.96875 -37.054688 4.976562 -44.007812 11 -49.59375 C 17.019531 -55.175781 24.578125 -57.96875 33.671875 -57.96875 C 37.929688 -57.96875 42.171875 -57.203125 46.390625 -55.671875 C 50.609375 -54.140625 54.191406 -52.0625 57.140625 -49.4375 L 48.9375 -39.5 C 46.851562 -41.414062 44.441406 -42.929688 41.703125 -44.046875 C 38.972656 -45.171875 36.265625 -45.734375 33.578125 -45.734375 C 28.867188 -45.734375 24.914062 -44.101562 21.71875 -40.84375 C 18.519531 -37.59375 16.921875 -33.554688 16.921875 -28.734375 C 16.921875 -23.867188 18.535156 -19.789062 21.765625 -16.5 C 24.992188 -13.21875 28.988281 -11.578125 33.75 -11.578125 C 36.8125 -11.578125 40.203125 -12.507812 43.921875 -14.375 Z M 43.921875 -29.234375 "/></g></g></g><g fill="#000000" fill-opacity="1"><g transform="translate(300.372, 119.672674)"><g><path d="M 19.875 -44.25 L 19.875 -36.78125 C 22.988281 -42.09375 27.773438 -44.800781 34.234375 -44.90625 L 34.234375 -32.109375 C 30.179688 -32.484375 26.867188 -31.804688 24.296875 -30.078125 C 21.722656 -28.359375 20.25 -25.914062 19.875 -22.75 L 19.875 0 L 5.671875 0 L 5.671875 -44.25 Z M 19.875 -44.25 "/></g></g></g><g fill="#000000" fill-opacity="1"><g transform="translate(330.748817, 119.672674)"><g><path d="M 26.1875 -44.75 C 33.414062 -44.75 39.242188 -42.679688 43.671875 -38.546875 C 48.109375 -34.410156 50.328125 -28.945312 50.328125 -22.15625 C 50.328125 -15.375 48.109375 -9.898438 43.671875 -5.734375 C 39.242188 -1.578125 33.414062 0.5 26.1875 0.5 C 18.90625 0.5 13.046875 -1.578125 8.609375 -5.734375 C 4.179688 -9.898438 1.96875 -15.375 1.96875 -22.15625 C 1.96875 -28.945312 4.179688 -34.410156 8.609375 -38.546875 C 13.046875 -42.679688 18.90625 -44.75 26.1875 -44.75 Z M 26.1875 -33.5 C 23.238281 -33.5 20.84375 -32.429688 19 -30.296875 C 17.164062 -28.160156 16.25 -25.394531 16.25 -22 C 16.25 -18.550781 17.164062 -15.773438 19 -13.671875 C 20.84375 -11.566406 23.238281 -10.515625 26.1875 -10.515625 C 29.09375 -10.515625 31.460938 -11.566406 33.296875 -13.671875 C 35.128906 -15.773438 36.046875 -18.550781 36.046875 -22 C 36.046875 -25.394531 35.128906 -28.160156 33.296875 -30.296875 C 31.460938 -32.429688 29.09375 -33.5 26.1875 -33.5 Z M 26.1875 -33.5 "/></g></g></g><g fill="#000000" fill-opacity="1"><g transform="translate(378.36696, 119.672674)"><g><path d="M 61.328125 0 L 47.296875 0 L 38.59375 -28.078125 L 29.890625 0 L 15.765625 0 L -0.40625 -44.25 L 14.046875 -44.25 L 23.15625 -13.625 L 32.015625 -44.25 L 45.578125 -44.25 L 54.6875 -13.625 L 63.640625 -44.25 L 77.515625 -44.25 Z M 61.328125 0 "/></g></g></g><g fill="#000000" fill-opacity="1"><g transform="translate(450.615567, 119.672674)"><g><path d="M 31.453125 -12.234375 L 34.234375 -2.375 C 30.785156 -0.351562 26.847656 0.65625 22.421875 0.65625 C 18.035156 0.65625 14.488281 -0.5625 11.78125 -3 C 9.070312 -5.4375 7.71875 -8.898438 7.71875 -13.390625 L 7.71875 -32.921875 L 1.5625 -32.921875 L 1.5625 -42.203125 L 7.71875 -42.203125 L 7.71875 -54.515625 L 21.84375 -54.515625 L 21.84375 -42.28125 L 33.421875 -42.28125 L 33.421875 -32.921875 L 21.84375 -32.921875 L 21.84375 -15.59375 C 21.84375 -13.90625 22.179688 -12.660156 22.859375 -11.859375 C 23.546875 -11.066406 24.578125 -10.695312 25.953125 -10.75 C 27.265625 -10.75 29.097656 -11.242188 31.453125 -12.234375 Z M 31.453125 -12.234375 "/></g></g></g><g fill="#000000" fill-opacity="1"><g transform="translate(481.649196, 119.672674)"><g><path d="M 35.140625 -44.90625 C 40.015625 -44.90625 43.925781 -43.359375 46.875 -40.265625 C 49.832031 -37.179688 51.3125 -33.066406 51.3125 -27.921875 L 51.3125 0 L 37.109375 0 L 37.109375 -23.96875 C 37.109375 -26.539062 36.410156 -28.578125 35.015625 -30.078125 C 33.617188 -31.585938 31.71875 -32.34375 29.3125 -32.34375 C 26.570312 -32.34375 24.378906 -31.359375 22.734375 -29.390625 C 21.097656 -27.421875 20.28125 -24.90625 20.28125 -21.84375 L 20.28125 0 L 6.078125 0 L 6.078125 -60.921875 L 20.28125 -60.921875 L 20.28125 -36.953125 C 23.40625 -42.148438 28.359375 -44.800781 35.140625 -44.90625 Z M 35.140625 -44.90625 "/></g></g></g><g fill="#ffffff" fill-opacity="1"><g transform="translate(560.207902, 118.97238)"><g><path d="M 58.796875 0 L 45.90625 0 L 19.453125 -35.390625 L 19.453125 0 L 5.75 0 L 5.75 -57.484375 L 18.640625 -57.484375 L 45.15625 -22 L 45.15625 -57.484375 L 58.796875 -57.484375 Z M 58.796875 0 "/></g></g></g><g fill="#ffffff" fill-opacity="1"><g transform="translate(620.063092, 118.97238)"><g><path d="M 26.1875 -44.75 C 33.414062 -44.75 39.242188 -42.679688 43.671875 -38.546875 C 48.109375 -34.410156 50.328125 -28.945312 50.328125 -22.15625 C 50.328125 -15.375 48.109375 -9.898438 43.671875 -5.734375 C 39.242188 -1.578125 33.414062 0.5 26.1875 0.5 C 18.90625 0.5 13.046875 -1.578125 8.609375 -5.734375 C 4.179688 -9.898438 1.96875 -15.375 1.96875 -22.15625 C 1.96875 -28.945312 4.179688 -34.410156 8.609375 -38.546875 C 13.046875 -42.679688 18.90625 -44.75 26.1875 -44.75 Z M 26.1875 -33.5 C 23.238281 -33.5 20.84375 -32.429688 19 -30.296875 C 17.164062 -28.160156 16.25 -25.394531 16.25 -22 C 16.25 -18.550781 17.164062 -15.773438 19 -13.671875 C 20.84375 -11.566406 23.238281 -10.515625 26.1875 -10.515625 C 29.09375 -10.515625 31.460938 -11.566406 33.296875 -13.671875 C 35.128906 -15.773438 36.046875 -18.550781 36.046875 -22 C 36.046875 -25.394531 35.128906 -28.160156 33.296875 -30.296875 C 31.460938 -32.429688 29.09375 -33.5 26.1875 -33.5 Z M 26.1875 -33.5 "/></g></g></g><g fill="#ffffff" fill-opacity="1"><g transform="translate(667.68441, 118.97238)"><g><path d="M 61.328125 0 L 47.296875 0 L 38.59375 -28.078125 L 29.890625 0 L 15.765625 0 L -0.40625 -44.25 L 14.046875 -44.25 L 23.15625 -13.625 L 32.015625 -44.25 L 45.578125 -44.25 L 54.6875 -13.625 L 63.640625 -44.25 L 77.515625 -44.25 Z M 61.328125 0 "/></g></g></g></svg>